<svg width="1280" height="720" xmlns="http://www.w3.org/2000/svg" xmlns:xlink="http://www.w3.org/1999/xlink" overflow="hidden"><g><rect x="0" y="0" width="1280" height="720" fill="none"/><g><g><g><text fill="#FFFFFF" font-family="Arial,Arial_MSFontService,sans-serif" font-weight="400" font-size="88" transform="translate(325.083 150)">Check us out on</text><path d="M367.84 41.0705C363.511 24.8959 350.799 12.1851 334.625 7.85535 305.338 2.94938e-06 187.847 0 187.847 0 187.847 0 70.3579 2.94938e-06 41.0704 7.85535 24.8959 12.1851 12.1851 24.8959 7.85535 41.0705 2.94938e-06 70.3579 0 131.5 0 131.5 0 131.5 2.94938e-06 192.642 7.85535 221.929 12.1851 238.104 24.8959 250.815 41.0704 255.144 70.3579 262.999 187.847 262.999 187.847 262.999 187.847 262.999 305.338 262.999 334.625 255.144 350.799 250.815 363.511 238.104 367.84 221.929 375.696 192.642 375.696 131.5 375.696 131.5 375.696 131.5 375.664 70.3579 367.84 41.0705Z" fill="#FF0000" transform="matrix(1.00238 0 0 1 49.5584 199.001)"/><path d="M150.242 187.853 247.847 131.505 150.242 75.1564 150.242 187.853Z" fill="#FFFFFF" transform="matrix(1.00238 0 0 1 49.5584 199.001)"/><path d="M455.021 170.997 412.837 18.6527 449.64 18.6527 464.423 87.7116C468.196 104.721 470.948 119.226 472.742 131.225L473.824 131.225C475.061 122.628 477.845 108.216 482.144 87.9591L497.452 18.6527 534.254 18.6527 491.545 170.997 491.545 244.077 454.99 244.077 454.99 170.997 455.021 170.997Z" fill="#FFFFFF" transform="matrix(1.00238 0 0 1 49.5584 199.001)"/><path d="M545.325 239.247C537.904 234.237 532.615 226.443 529.46 215.866 526.337 205.289 524.76 191.249 524.76 173.682L524.76 149.776C524.76 132.055 526.554 117.798 530.141 107.067 533.728 96.3351 539.326 88.4797 546.934 83.5624 554.542 78.6451 564.531 76.171 576.902 76.171 589.087 76.171 598.829 78.676 606.189 83.6862 613.518 88.6962 618.899 96.5516 622.301 107.19 625.703 117.86 627.405 132.055 627.405 149.776L627.405 173.682C627.405 191.249 625.735 205.351 622.426 215.99 619.116 226.659 613.735 234.453 606.312 239.37 598.89 244.288 588.808 246.762 576.098 246.762 562.984 246.792 552.749 244.257 545.325 239.247ZM586.953 213.454C588.994 208.073 590.046 199.321 590.046 187.136L590.046 135.829C590.046 124.014 589.025 115.355 586.953 109.912 584.88 104.438 581.263 101.716 576.066 101.716 571.057 101.716 567.5 104.438 565.459 109.912 563.387 115.386 562.366 124.014 562.366 135.829L562.366 187.136C562.366 199.321 563.355 208.104 565.336 213.454 567.315 218.835 570.871 221.526 576.066 221.526 581.263 221.526 584.88 218.835 586.953 213.454Z" fill="#FFFFFF" transform="matrix(1.00238 0 0 1 49.5584 199.001)"/><path d="M747.121 244.108 718.112 244.108 714.896 223.944 714.092 223.944C706.205 239.16 694.391 246.767 678.619 246.767 667.702 246.767 659.63 243.18 654.435 236.037 649.239 228.861 646.641 217.666 646.641 202.45L646.641 79.3931 683.722 79.3931 683.722 200.285C683.722 207.646 684.526 212.872 686.134 215.996 687.742 219.119 690.433 220.696 694.205 220.696 697.422 220.696 700.515 219.707 703.484 217.728 706.453 215.748 708.618 213.243 710.071 210.213L710.071 79.3622 747.121 79.3622 747.121 244.108Z" fill="#FFFFFF" transform="matrix(1.00238 0 0 1 49.5584 199.001)"/><path d="M847.851 48.4916 811.048 48.4916 811.048 244.102 774.771 244.102 774.771 48.4916 737.969 48.4916 737.969 18.6784 847.851 18.6784 847.851 48.4916Z" fill="#FFFFFF" transform="matrix(1.00238 0 0 1 49.5584 199.001)"/><path d="M937.288 244.108 908.279 244.108 905.063 223.944 904.259 223.944C896.373 239.16 884.559 246.767 868.786 246.767 857.869 246.767 849.797 243.18 844.602 236.037 839.406 228.861 836.808 217.666 836.808 202.45L836.808 79.3931 873.889 79.3931 873.889 200.285C873.889 207.646 874.693 212.872 876.301 215.996 877.909 219.119 880.6 220.696 884.374 220.696 887.589 220.696 890.682 219.707 893.651 217.728 896.62 215.748 898.785 213.243 900.238 210.213L900.238 79.3622 937.288 79.3622 937.288 244.108Z" fill="#FFFFFF" transform="matrix(1.00238 0 0 1 49.5584 199.001)"/><path d="M1060.01 105.709C1057.75 95.3174 1054.13 87.8022 1049.12 83.1323 1044.11 78.4625 1037.21 76.1429 1028.43 76.1429 1021.63 76.1429 1015.26 78.0603 1009.35 81.9262 1003.44 85.792 998.864 90.833 995.647 97.1111L995.37 97.1111 995.37 10.3312 959.649 10.3312 959.649 244.074 990.267 244.074 994.039 228.487 994.844 228.487C997.72 234.054 1002.02 238.414 1007.74 241.662 1013.46 244.879 1019.83 246.487 1026.82 246.487 1039.35 246.487 1048.59 240.704 1054.5 229.167 1060.41 217.6 1063.38 199.571 1063.38 175.016L1063.38 148.944C1063.38 130.543 1062.23 116.1 1060.01 105.709ZM1026.02 172.912C1026.02 184.911 1025.52 194.313 1024.53 201.117 1023.54 207.921 1021.9 212.777 1019.55 215.621 1017.23 218.497 1014.08 219.92 1010.15 219.92 1007.09 219.92 1004.28 219.209 1001.68 217.756 999.081 216.333 996.978 214.168 995.37 211.323L995.37 117.832C996.606 113.348 998.772 109.698 1001.83 106.822 1004.86 103.946 1008.2 102.523 1011.76 102.523 1015.53 102.523 1018.44 104.008 1020.48 106.946 1022.55 109.915 1023.98 114.863 1024.78 121.852 1025.58 128.842 1025.99 138.769 1025.99 151.665L1025.99 172.912 1026.02 172.912Z" fill="#FFFFFF" transform="matrix(1.00238 0 0 1 49.5584 199.001)"/><path d="M1115.98 182.406C1115.98 192.982 1116.29 200.9 1116.91 206.189 1117.53 211.477 1118.83 215.312 1120.81 217.756 1122.79 220.167 1125.82 221.373 1129.93 221.373 1135.47 221.373 1139.3 219.209 1141.34 214.91 1143.41 210.611 1144.53 203.437 1144.71 193.416L1176.69 195.302C1176.88 196.725 1176.97 198.704 1176.97 201.209 1176.97 216.425 1172.79 227.806 1164.47 235.321 1156.16 242.837 1144.37 246.609 1129.16 246.609 1110.88 246.609 1098.08 240.888 1090.75 229.414 1083.39 217.941 1079.74 200.22 1079.74 176.22L1079.74 147.459C1079.74 122.749 1083.54 104.688 1091.15 93.3067 1098.76 81.9256 1111.78 76.2351 1130.24 76.2351 1142.95 76.2351 1152.72 78.5546 1159.53 83.2246 1166.33 87.8944 1171.12 95.1312 1173.91 104.997 1176.69 114.862 1178.08 128.47 1178.08 145.85L1178.08 174.056 1115.98 174.056 1115.98 182.406ZM1120.68 104.78C1118.8 107.1 1117.56 110.904 1116.91 116.192 1116.29 121.481 1115.98 129.491 1115.98 140.254L1115.98 152.068 1143.1 152.068 1143.1 140.254C1143.1 129.676 1142.73 121.666 1142.02 116.192 1141.31 110.718 1140.01 106.883 1138.12 104.626 1136.24 102.399 1133.33 101.255 1129.4 101.255 1125.45 101.286 1122.54 102.461 1120.68 104.78Z" fill="#FFFFFF" transform="matrix(1.00238 0 0 1 49.5584 199.001)"/><text fill="#FFFFFF" font-family="Arial,Arial_MSFontService,sans-serif" font-weight="700" font-size="107" transform="translate(180 595)">Vespa Enthusiasts</text></g></g></g></g></svg>