<svg width="1200" height="528"
	xmlns="http://www.w3.org/2000/svg"
	xmlns:xlink="http://www.w3.org/1999/xlink" overflow="hidden">
	<g>
		<path d="M316.154 35.3646C312.432 21.5379 301.53 10.636 287.703 6.91339 262.443 0 161.401 0 161.401 0 161.401 0 60.3592 0 35.0987 6.64749 21.5379 10.3701 10.3701 21.5379 6.64749 35.3646 0 60.6251 0 113.007 0 113.007 0 113.007 0 165.655 6.64749 190.65 10.3701 204.477 21.272 215.379 35.0987 219.101 60.6251 226.015 161.401 226.015 161.401 226.015 161.401 226.015 262.443 226.015 287.703 219.367 301.53 215.644 312.432 204.743 316.154 190.916 322.802 165.655 322.802 113.273 322.802 113.273 322.802 113.273 323.068 60.6251 316.154 35.3646Z" fill="#FF0000" transform="matrix(1.00076 0 0 1 93.0769 128.993)"/>
		<path d="M129.227 64.6136 129.227 161.401 213.251 113.007Z" fill="#FFFFFF" transform="matrix(1.00076 0 0 1 93.0769 128.993)"/>
		<path d="M468.781 205.806C462.399 201.552 457.879 194.904 455.22 185.598 452.561 176.557 451.231 164.326 451.231 149.435L451.231 128.961C451.231 113.805 452.827 101.574 455.752 92.2671 458.942 82.9606 463.729 76.3131 470.11 72.0588 476.758 67.8044 485.266 65.6772 495.902 65.6772 506.273 65.6772 514.781 67.8044 521.163 72.0588 527.544 76.3131 532.065 83.2265 534.99 92.2671 537.915 101.308 539.51 113.539 539.51 128.961L539.51 149.435C539.51 164.592 538.18 176.557 535.256 185.864 532.331 194.904 527.81 201.818 521.429 206.072 515.047 210.326 506.273 212.454 495.371 212.454 484.203 212.188 475.162 210.061 468.781 205.806ZM504.677 183.471C506.538 178.95 507.336 171.239 507.336 160.869L507.336 116.73C507.336 106.626 506.538 99.1805 504.677 94.3943 502.816 89.6081 499.891 87.4809 495.371 87.4809 491.116 87.4809 487.925 89.874 486.33 94.3943 484.469 99.1805 483.671 106.626 483.671 116.73L483.671 160.869C483.671 171.239 484.469 178.95 486.33 183.471 487.925 187.991 491.116 190.384 495.637 190.384 499.891 190.384 502.816 188.257 504.677 183.471Z" fill="#FFFFFF" transform="matrix(1.00076 0 0 1 93.0769 128.993)"/>
		<path d="M959.631 149.701 959.631 156.881C959.631 165.921 959.897 172.835 960.429 177.355 960.961 181.875 962.024 185.332 963.885 187.193 965.481 189.32 968.14 190.384 971.862 190.384 976.649 190.384 979.839 188.523 981.701 184.8 983.562 181.078 984.36 174.962 984.626 166.187L1012.01 167.783C1012.28 169.112 1012.28 170.707 1012.28 172.835 1012.28 185.864 1008.82 195.702 1001.64 202.084 994.464 208.465 984.36 211.656 971.331 211.656 955.643 211.656 944.741 206.604 938.359 196.766 931.978 186.927 928.787 171.771 928.787 151.031L928.787 126.302C928.787 105.03 931.978 89.6081 938.625 79.7698 945.273 69.9315 956.44 65.1454 972.128 65.1454 983.03 65.1454 991.539 67.2726 997.389 71.261 1003.24 75.2495 1007.23 81.6311 1009.62 89.874 1012.01 98.3828 1013.08 110.082 1013.08 124.973L1013.08 149.17 959.631 149.17ZM963.62 90.1399C962.024 92.2671 960.961 95.4579 960.429 99.9782 959.897 104.498 959.631 111.412 959.631 120.718L959.631 130.823 983.03 130.823 983.03 120.718C983.03 111.678 982.764 104.764 982.233 99.9782 981.701 95.192 980.371 92.0012 978.776 90.1399 977.18 88.2786 974.521 87.215 971.331 87.215 967.608 86.9491 965.215 88.0127 963.62 90.1399Z" fill="#FFFFFF" transform="matrix(1.00076 0 0 1 93.0769 128.993)"/>
		<path d="M391.138 147.042 354.976 15.954 386.618 15.954 399.381 75.2495C402.572 89.874 404.965 102.371 406.56 112.741L407.358 112.741C408.422 105.296 410.815 93.0648 414.537 75.5154L427.832 15.954 459.474 15.954 422.78 147.042 422.78 209.795 391.404 209.795 391.404 147.042Z" fill="#FFFFFF" transform="matrix(1.00076 0 0 1 93.0769 128.993)"/>
		<path d="M642.413 68.3362 642.413 210.061 617.419 210.061 614.76 192.777 613.962 192.777C607.314 205.806 596.944 212.454 583.383 212.454 574.077 212.454 567.164 209.263 562.643 203.147 558.123 197.031 555.996 187.459 555.996 174.164L555.996 68.3362 587.904 68.3362 587.904 172.303C587.904 178.684 588.701 183.205 590.031 185.864 591.36 188.523 593.753 189.852 596.944 189.852 599.603 189.852 602.262 189.055 604.921 187.193 607.58 185.598 609.442 183.471 610.505 180.812L610.505 68.3362Z" fill="#FFFFFF" transform="matrix(1.00076 0 0 1 93.0769 128.993)"/>
		<path d="M805.941 68.3362 805.941 210.061 780.947 210.061 778.288 192.777 777.49 192.777C770.842 205.806 760.472 212.454 746.911 212.454 737.605 212.454 730.692 209.263 726.171 203.147 721.651 197.031 719.524 187.459 719.524 174.164L719.524 68.3362 751.432 68.3362 751.432 172.303C751.432 178.684 752.229 183.205 753.559 185.864 754.888 188.523 757.282 189.852 760.472 189.852 763.131 189.852 765.79 189.055 768.449 187.193 771.108 185.598 772.97 183.471 774.033 180.812L774.033 68.3362Z" fill="#FFFFFF" transform="matrix(1.00076 0 0 1 93.0769 128.993)"/>
		<path d="M729.096 41.7462 697.454 41.7462 697.454 209.795 666.344 209.795 666.344 41.7462 634.702 41.7462 634.702 15.954 729.096 15.954Z" fill="#FFFFFF" transform="matrix(1.00076 0 0 1 93.0769 128.993)"/>
		<path d="M911.503 90.9376C909.642 81.897 906.451 75.5154 902.197 71.5269 897.942 67.5385 891.827 65.4113 884.382 65.4113 878.532 65.4113 872.948 67.0067 867.896 70.4634 862.844 73.6541 858.855 78.1744 856.196 83.4924L855.93 83.4924 855.93 8.77468 825.086 8.77468 825.086 209.795 851.41 209.795 854.601 196.5 855.399 196.5C857.792 201.286 861.514 205.008 866.566 207.933 871.618 210.592 876.936 212.188 883.052 212.188 893.954 212.188 901.665 207.136 906.717 197.297 911.769 187.459 914.428 171.771 914.428 150.765L914.428 128.429C914.162 112.21 913.365 99.7123 911.503 90.9376ZM882.254 148.638C882.254 159.008 881.723 166.985 880.925 172.835 880.127 178.684 878.532 182.939 876.67 185.332 874.543 187.725 871.884 189.055 868.694 189.055 866.035 189.055 863.641 188.523 861.514 187.193 859.387 185.864 857.526 184.002 856.196 181.609L856.196 101.308C857.26 97.5851 859.121 94.3943 861.78 91.7353 864.439 89.3422 867.364 88.0127 870.289 88.0127 873.48 88.0127 876.139 89.3422 877.734 91.7353 879.595 94.3943 880.659 98.6487 881.457 104.498 882.254 110.614 882.52 119.123 882.52 130.025L882.52 148.638Z" fill="#FFFFFF" transform="matrix(1.00076 0 0 1 93.0769 128.993)"/>
		<text fill="#FFFFFF" font-family="Arial,Arial_MSFontService,sans-serif" font-weight="300" font-size="93" transform="translate(269.667 89)">Check us out on</text>
		<text fill="#FFFFFF" font-family="Arial,Arial_MSFontService,sans-serif" font-weight="700" font-size="72" transform="translate(42.6367 442)">Vespa Enthusiasts: Tim &amp; Lisa H</text>
		<text fill="#FFFFFF" font-family="Arial,Arial_MSFontService,sans-serif" font-weight="700" font-size="37" transform="translate(495 510)">(click here!)</text>
	</g>
</svg>